<svg height="480pt" viewBox="0 0 480 480" width="480pt" xmlns="http://www.w3.org/2000/svg"><path d="m456 0h-432c-13.253906 0-24 10.746094-24 24v432c0 13.253906 10.746094 24 24 24h432c13.253906 0 24-10.746094 24-24v-432c0-13.253906-10.746094-24-24-24zm-337.34375 275.558594c-1.570312-2.097656-4.035156-3.332032-6.65625-3.332032s-5.085938 1.234376-6.65625 3.332032l-89.34375 134.042968v-265.601562h448v240l-129.601562-172.800781c-1.507813-2.011719-3.878907-3.199219-6.398438-3.199219s-4.890625 1.1875-6.398438 3.199219l-130.175781 173.511719zm-102.65625-251.558594c0-4.417969 3.582031-8 8-8h432c4.417969 0 8 3.582031 8 8v104h-448zm8 440c-4.417969 0-8-3.582031-8-8v-17.601562l96-144 113.046875 169.601562zm432 0h-211.71875l-43.480469-65.167969 127.199219-169.496093 136 181.328124v45.335938c0 4.417969-3.582031 8-8 8zm0 0"/><path d="m72 40c-17.671875 0-32 14.328125-32 32s14.328125 32 32 32 32-14.328125 32-32-14.328125-32-32-32zm0 48c-8.835938 0-16-7.164062-16-16s7.164062-16 16-16 16 7.164062 16 16-7.164062 16-16 16zm0 0"/><path d="m432 40h-296c-4.417969 0-8 3.582031-8 8s3.582031 8 8 8h296c4.417969 0 8-3.582031 8-8s-3.582031-8-8-8zm0 0"/><path d="m432 88h-296c-4.417969 0-8 3.582031-8 8s3.582031 8 8 8h296c4.417969 0 8-3.582031 8-8s-3.582031-8-8-8zm0 0"/></svg>